<?xml version="1.0" standalone="no"?>
<!DOCTYPE svg PUBLIC "-//W3C//DTD SVG 20010904//EN"
 "http://www.w3.org/TR/2001/REC-SVG-20010904/DTD/svg10.dtd">
<svg version="1.0" xmlns="http://www.w3.org/2000/svg"
 width="48" height="48" viewBox="0 0 640.000000 640.000000"
 preserveAspectRatio="xMidYMid meet">

<g transform="translate(0.000000,640.000000) scale(0.100000,-0.100000)"
fill="red" stroke="none">
<path d="M2450 5977 c-117 -42 -221 -119 -284 -211 -21 -29 -98 -197 -171
-372 l-134 -319 -590 -5 -591 -5 -32 -33 -33 -32 -3 -150 c-5 -244 2 -250 282
-250 l186 0 2 -1812 3 -1813 23 -80 c72 -255 224 -430 427 -492 57 -17 136
-18 1650 -18 l1590 0 70 22 c184 58 331 224 411 463 l29 85 5 1820 5 1820 195
5 c210 5 229 10 255 60 22 42 21 308 -1 351 -30 59 -28 59 -657 59 l-573 0
-134 320 c-73 176 -148 342 -166 368 -66 98 -184 185 -303 222 -60 19 -92 20
-730 20 l-666 0 -65 -23z m1363 -467 c19 -20 187 -409 187 -433 0 -4 -367 -7
-815 -7 -448 0 -815 1 -815 3 0 4 179 429 182 431 52 38 26 37 645 34 l593 -3
23 -25z m1017 -2647 c0 -1054 -4 -1761 -10 -1796 -11 -70 -49 -157 -84 -192
l-25 -25 -1525 0 -1524 0 -35 40 c-19 23 -44 69 -56 105 l-21 65 0 1770 0
1770 1640 0 1640 0 0 -1737z"/>
<path d="M2083 3885 c-67 -29 -63 41 -63 -1166 l0 -1091 34 -34 34 -34 162 0
162 0 34 34 34 34 0 1099 c0 1220 5 1129 -66 1159 -46 19 -286 19 -331 -1z"/>
<path d="M3012 3880 c-65 -40 -62 18 -62 -1155 0 -1153 -2 -1112 53 -1148 22
-14 52 -17 186 -17 l161 0 32 29 33 29 3 1094 c3 1007 2 1096 -14 1125 -27 53
-63 63 -221 63 -121 0 -142 -3 -171 -20z"/>
<path d="M3954 3884 c-69 -34 -65 41 -62 -1172 l3 -1094 33 -29 32 -29 163 0
c178 0 193 4 222 60 13 25 15 170 15 1107 0 842 -3 1083 -13 1103 -7 13 -28
35 -46 47 -31 21 -45 23 -175 23 -107 0 -149 -4 -172 -16z"/>
</g>
</svg>
